<svg class="img-fluid" id="outputsvg" xmlns="http://www.w3.org/2000/svg" style="transform: matrix(2.23194, 0, 0, 2.23194, 0.00839478, -0.958985); transform-origin: 50% 50%; cursor: move; max-height: none; transition: transform 200ms ease-in-out;" width="700" height="367" viewBox="0 0 7000 3670"><g id="l3bNP06hNrwZ69Lec7IVZfs" fill="rgb(5,77,142)" style="transform: none;"><g style="transform: none;"><path id="pbitfcaMk" d="M4110 2371 l-25 -7 25 -7 c38 -10 50 -8 50 8 0 16 -10 17 -50 6z"></path><path id="pXwxF9AhU" d="M4730 2366 c0 -10 -14 -16 -42 -19 -25 -2 -8 -4 38 -5 45 -1 96 -5 113 -8 26 -6 31 -4 31 13 0 17 -9 21 -52 27 -77 9 -88 8 -88 -8z"></path><path id="pOo6GT7BP" d="M2310 2355 c0 -12 13 -15 68 -13 37 0 52 3 35 5 -18 2 -33 8 -33 14 0 5 -16 9 -35 9 -24 0 -35 -5 -35 -15z"></path><path id="p12cMVaeZ7" d="M2590 2356 c0 -14 29 -26 68 -26 15 0 22 6 22 20 0 17 -7 20 -45 20 -32 0 -45 -4 -45 -14z"></path><path id="pDY1hPu9D" d="M4220 2356 c0 -7 10 -16 23 -20 41 -11 57 -7 57 14 0 17 -7 20 -40 20 -27 0 -40 -4 -40 -14z"></path><path id="p1EZe4pMri" d="M4430 2350 c0 -21 16 -25 58 -14 39 11 27 34 -18 34 -33 0 -40 -3 -40 -20z"></path><path id="pWcnEp0YU" d="M2313 2321 c-50 -13 -83 -39 -100 -79 -23 -56 -6 -109 109 -340 74 -149 110 -211 135 -230 35 -29 195 -79 278 -87 372 -39 484 -45 838 -45 384 0 672 19 841 57 39 8 82 17 96 20 44 9 131 56 150 83 29 42 207 402 221 447 15 54 0 113 -38 142 -51 41 -92 44 -318 26 -115 -9 -232 -18 -260 -20 -27 -2 -160 -7 -295 -10 -135 -3 -256 -8 -269 -11 -24 -5 -26 -23 -7 -79 3 -11 -2 -4 -11 15 -16 32 -21 35 -55 32 -36 -3 -38 -5 -38 -38 0 -33 1 -34 39 -34 35 0 39 -3 44 -30 4 -16 16 -39 27 -50 11 -11 20 -25 20 -30 0 -5 5 -10 10 -10 6 0 10 -7 10 -15 0 -9 7 -18 15 -21 8 -4 15 -10 15 -15 0 -17 142 -150 181 -170 22 -10 39 -23 39 -28 0 -21 109 -45 116 -26 6 16 41 8 96 -22 l37 -20 -77 -6 c-68 -5 -79 -4 -92 13 -19 24 -69 37 -80 21 -5 -9 -11 -9 -23 3 -9 9 -33 16 -56 16 -34 0 -41 3 -41 20 0 20 -6 23 -82 35 -32 5 -38 10 -38 30 0 20 -5 25 -26 25 -37 0 -94 62 -94 101 0 19 -5 29 -15 29 -8 0 -15 9 -15 20 0 10 -7 25 -16 32 -8 7 -24 21 -36 31 -29 27 -32 15 -8 -33 12 -23 17 -39 12 -36 -5 3 -15 19 -21 35 -7 16 -22 33 -34 39 -12 6 -16 11 -9 11 6 1 12 6 12 11 0 15 -51 12 -80 -5 -14 -8 -35 -14 -47 -15 -13 0 -23 -4 -23 -10 0 -5 -7 -10 -16 -10 -8 0 -22 -6 -30 -14 -12 -13 -11 -15 8 -19 13 -2 1 -4 -27 -4 -27 -1 -42 1 -32 4 9 2 17 11 17 18 0 8 18 19 40 25 22 6 44 20 50 30 6 11 19 20 28 20 22 0 65 55 60 76 -2 13 -8 12 -33 -8 l-30 -23 28 36 27 36 -37 7 c-21 3 -101 6 -178 6 -133 1 -242 6 -590 30 -82 5 -181 12 -220 14 -38 3 -85 1 -102 -3z m768 -78 c126 -3 229 -9 229 -13 0 -8 -123 -78 -205 -117 -55 -26 -60 -31 -63 -64 -3 -36 -3 -36 44 -43 89 -12 257 -5 327 13 l67 17 31 -55 c18 -31 66 -90 109 -132 84 -84 179 -138 278 -158 62 -13 441 -15 460 -2 8 5 12 21 10 41 -3 33 -5 34 -120 76 -64 23 -145 57 -179 75 -82 44 -201 162 -268 264 -50 78 -51 80 -29 86 13 3 127 9 253 12 127 4 263 10 303 14 l72 6 0 -31 c0 -17 4 -33 9 -36 5 -3 25 -38 44 -78 20 -40 53 -101 74 -135 21 -34 51 -85 66 -113 16 -29 37 -54 47 -57 19 -5 19 -6 0 -43 -11 -21 -31 -48 -46 -59 -57 -45 -257 -88 -524 -113 -161 -14 -831 -18 -942 -5 -62 8 -68 11 -68 31 0 15 -9 27 -25 34 -14 6 -25 20 -25 29 0 20 -4 28 -80 163 -56 98 -95 169 -154 280 -20 36 -45 80 -58 99 l-22 34 78 -6 c42 -4 181 -10 307 -14z m118 -156 c-9 -7 -14 -18 -12 -24 3 -7 -2 -13 -11 -13 -24 0 -19 25 7 38 29 14 35 14 16 -1z m569 -268 c31 -17 79 -40 107 -50 28 -10 41 -18 29 -18 -45 -2 -183 78 -249 145 -36 36 -65 70 -65 75 0 5 27 -19 61 -55 33 -36 86 -79 117 -97z m-1222 66 c1 -42 -3 -44 -17 -8 -7 20 -6 28 3 35 7 4 13 8 13 8 0 0 0 -16 1 -35z m1449 -145 l30 -8 -30 0 c-16 0 -39 3 -50 8 l-20 9 20 -1 c11 0 34 -4 50 -8z"></path><path id="pbA88xVHM" d="M2120 2255 c0 -28 4 -35 20 -35 16 0 20 7 20 35 0 28 -4 35 -20 35 -16 0 -20 -7 -20 -35z"></path><path id="pN49rWxKn" d="M4926 2208 c-10 -38 -7 -48 14 -48 16 0 20 7 20 35 0 40 -24 49 -34 13z"></path><path id="pokffEe9i" d="M2080 2161 l0 -28 35 16 c45 21 45 41 0 41 -32 0 -35 -3 -35 -29z"></path><path id="p14EC6R5gJ" d="M4583 1613 c-15 -6 -17 -33 -3 -33 5 0 14 9 20 20 11 20 6 23 -17 13z"></path><path id="pfgQp638I" d="M4315 1555 c-5 -2 -27 -6 -47 -10 -24 -4 -38 -11 -38 -20 0 -17 22 -18 94 -9 36 5 46 11 46 25 0 18 -25 24 -55 14z"></path><path id="p5UflvPHM" d="M2830 1530 c0 -17 7 -20 40 -20 45 0 57 23 18 34 -42 11 -58 7 -58 -14z"></path><path id="puYXajURL" d="M4420 1530 c0 -22 20 -26 51 -10 30 16 23 30 -16 30 -28 0 -35 -4 -35 -20z"></path><path id="pvOYIpFQE" d="M2930 1520 c0 -16 7 -20 35 -20 40 0 49 24 13 34 -38 10 -48 7 -48 -14z"></path><path id="pyhxPHNTy" d="M4148 1533 c-10 -2 -18 -11 -18 -19 0 -10 13 -14 45 -14 38 0 45 3 45 20 0 15 -6 20 -27 19 -16 -1 -36 -3 -45 -6z"></path><path id="pa2rkP0Nx" d="M3030 1510 c0 -16 7 -20 35 -20 40 0 49 24 13 34 -38 10 -48 7 -48 -14z"></path><path id="pFSw40im3" d="M4038 1523 c-10 -2 -18 -11 -18 -19 0 -10 13 -14 50 -14 43 0 50 3 50 20 0 16 -6 20 -32 19 -18 -1 -41 -3 -50 -6z"></path><path id="pCOPyHcFW" d="M3250 1500 c0 -17 7 -20 40 -20 45 0 57 23 18 34 -42 11 -58 7 -58 -14z"></path><path id="pzzsnoMMn" d="M3828 1513 c-10 -2 -18 -11 -18 -19 0 -10 13 -14 45 -14 38 0 45 3 45 20 0 15 -6 20 -27 19 -16 -1 -36 -3 -45 -6z"></path><path id="p139Ke5Mt6" d="M2750 1496 c0 -13 28 -26 58 -26 6 0 12 9 12 20 0 16 -7 20 -35 20 -23 0 -35 -5 -35 -14z"></path><path id="p76uBEXPo" d="M4140 1470 c0 -21 10 -24 48 -14 36 10 27 34 -13 34 -28 0 -35 -4 -35 -20z"></path><path id="pa3jboois" d="M3040 1456 c0 -13 28 -26 58 -26 6 0 12 9 12 20 0 16 -7 20 -35 20 -23 0 -35 -5 -35 -14z"></path><path id="phO9uKKpt" d="M3980 1450 c0 -21 10 -24 48 -14 36 10 27 34 -13 34 -28 0 -35 -4 -35 -20z"></path></g></g><g id="l1PwfqAbCA9JtYfIapZtH3k" fill="rgb(102,102,102)" style="transform: none;"><g style="transform: none;"><path id="pjtPeYuQ7" d="M2610 2388 c-15 -7 -116 -13 -245 -16 -246 -5 -242 -3 -271 -78 l-17 -44 -71 0 c-86 0 -142 -23 -180 -72 -34 -45 -33 -73 4 -110 30 -29 33 -30 109 -27 87 4 104 14 147 82 21 31 30 37 60 37 31 0 35 3 29 18 -18 43 -22 82 -11 104 27 54 107 66 380 55 211 -8 341 -3 416 16 l45 11 -50 13 c-65 18 -312 26 -345 11z m-516 -192 c-17 -8 -41 -30 -53 -50 -37 -60 -104 -82 -160 -53 -36 18 -36 34 -1 67 41 38 76 48 170 49 71 0 74 0 44 -13z"></path><path id="pjVPHRTYX" d="M4161 2381 l-75 -14 45 -14 c48 -15 226 -20 510 -15 269 5 311 -15 286 -140 -8 -37 -7 -38 22 -38 24 0 36 -9 61 -45 17 -25 44 -52 60 -60 35 -18 142 -20 173 -3 54 28 61 79 20 129 -40 48 -95 69 -181 69 -72 0 -73 0 -78 29 -10 47 -44 77 -116 99 -64 20 -77 21 -217 12 -99 -7 -158 -7 -175 0 -36 13 -246 8 -335 -9z m981 -181 c42 -12 98 -55 98 -75 0 -21 -41 -45 -78 -45 -47 0 -83 22 -112 69 -14 23 -29 41 -35 42 -17 2 38 17 65 18 14 0 42 -4 62 -9z"></path><path id="pXNgMLiHC" d="M3485 2280 c-61 -55 -120 -103 -132 -106 -13 -4 -23 -10 -23 -15 0 -12 -75 -49 -100 -49 -12 0 -18 -5 -15 -10 3 -6 -1 -13 -9 -16 -34 -13 -13 -23 59 -26 41 -2 75 0 75 4 0 3 19 9 43 13 23 4 61 18 84 32 l42 24 12 -23 c6 -13 23 -43 37 -68 21 -36 22 -42 7 -30 -17 14 -18 14 -6 -7 6 -13 17 -20 25 -17 8 3 17 -3 20 -14 12 -35 122 -131 194 -167 86 -43 178 -67 234 -63 l43 4 -33 13 c-43 17 -37 21 16 11 57 -10 62 4 10 31 -175 89 -302 231 -408 454 -32 69 -60 125 -62 125 -2 0 -53 -45 -113 -100z m74 -46 c15 -34 11 -37 -34 -28 l-36 6 22 24 c28 30 33 30 48 -2z m136 -242 c43 -57 50 -72 36 -72 -20 0 -60 41 -110 113 l-31 45 25 -6 c15 -4 47 -36 80 -80z"></path><path id="pHRSIqlUF" d="M2798 2292 c-34 -7 -20 -32 17 -32 19 0 35 3 35 8 0 12 -34 28 -52 24z"></path><path id="pMnC933sd" d="M4810 2278 c1 -29 22 -58 44 -58 27 0 18 37 -14 60 l-30 21 0 -23z"></path><path id="p8D4c9y7r" d="M3368 2245 c-2 -10 -16 -26 -33 -35 -16 -8 -32 -18 -33 -23 -6 -13 -80 -47 -102 -47 -11 0 -20 -7 -20 -15 0 -8 2 -15 5 -15 22 0 235 135 235 149 0 5 -11 8 -25 7 -16 -1 -25 -8 -27 -21z"></path><path id="poZzEMB2N" d="M3717 2205 c13 -25 27 -45 29 -45 2 0 -6 20 -18 45 -12 25 -25 45 -29 45 -4 0 4 -20 18 -45z"></path><path id="pNB2cxlNH" d="M3760 2134 c0 -4 23 -38 51 -75 66 -89 157 -170 240 -214 79 -41 107 -47 34 -7 -115 64 -226 162 -290 260 -27 40 -35 49 -35 36z"></path><path id="piLyEpuYc" d="M3515 2080 c6 -23 5 -24 -9 -7 -13 17 -16 17 -45 3 -16 -9 -58 -22 -92 -30 -83 -20 -88 -30 -9 -22 36 4 67 11 70 15 3 5 15 11 28 15 15 5 24 3 28 -8 3 -9 12 -16 20 -16 8 0 14 -10 14 -23 0 -22 29 -69 77 -128 42 -50 125 -109 155 -109 29 0 28 1 -28 43 -100 74 -210 211 -199 247 2 8 0 22 -6 30 -8 12 -9 9 -4 -10z"></path><path id="p1CloE2HUT" d="M3580 1973 c1 -11 40 -57 44 -52 3 2 -7 17 -20 32 -13 15 -24 24 -24 20z"></path><path id="pNeZLNxau" d="M2470 1937 c0 -9 -2 -21 -5 -29 -3 -7 6 -18 21 -25 30 -14 46 -9 38 11 -3 8 -1 17 5 21 17 10 13 24 -6 23 -10 0 -26 3 -35 7 -13 5 -18 3 -18 -8z"></path><path id="pCZJjSNLd" d="M2669 1891 c-16 -55 -53 -67 -81 -27 -11 14 -26 26 -34 26 -17 0 -17 -5 -3 -31 13 -26 3 -56 -22 -64 -20 -7 -26 -30 -10 -39 5 -4 21 -2 36 4 22 8 30 6 51 -15 33 -33 37 -32 30 10 -6 32 -3 39 28 69 24 22 39 29 46 22 7 -7 10 -3 10 11 0 12 5 25 10 28 16 10 11 25 -8 25 -10 0 -23 5 -29 11 -9 9 -15 1 -24 -30z"></path><path id="pswZuxU3v" d="M3674 1866 c50 -47 85 -71 93 -63 3 4 -5 11 -18 16 -13 5 -35 20 -49 33 -46 42 -67 54 -26 14z"></path><path id="pSCAkN1NV" d="M3790 1755 c0 -9 10 -15 25 -15 14 0 25 -4 25 -10 0 -5 11 -10 24 -10 13 0 26 -5 28 -11 2 -6 24 -9 53 -7 l50 3 -59 14 c-33 7 -79 21 -103 32 -36 15 -43 16 -43 4z"></path><path id="pZ3ab0sGw" d="M4040 1700 c0 -5 16 -10 35 -10 19 0 35 5 35 10 0 6 -16 10 -35 10 -19 0 -35 -4 -35 -10z"></path><path id="p12Dmelg1O" d="M2480 1611 c0 -16 82 -70 140 -92 188 -71 751 -126 1105 -108 159 8 216 13 420 40 197 26 348 68 417 116 58 39 50 56 -15 34 -64 -22 -249 -55 -407 -73 -156 -17 -972 -17 -1130 0 -210 23 -334 43 -426 68 -104 27 -104 27 -104 15z m1315 -152 c-91 -11 -390 -11 -480 0 -48 6 29 8 240 8 210 0 287 -2 240 -8z"></path><path id="p8G1R6U69" d="M2700 1610 c36 -11 50 -11 50 0 0 6 -17 10 -37 9 -34 -1 -35 -2 -13 -9z"></path></g></g><g id="l1t3CcZcGfeebDsojnkdCJw" fill="rgb(3,110,202)" style="transform: none;"><g style="transform: none;"><path id="pJQ3QvCXk" d="M2340 2313 c-44 -7 -80 -25 -80 -39 0 -8 -6 -14 -14 -14 -18 0 -35 -49 -29 -86 3 -16 23 -68 46 -116 29 -64 45 -88 59 -88 10 0 18 2 18 5 0 3 -16 36 -35 74 -49 99 -62 154 -41 186 26 40 79 48 230 35 72 -6 138 -13 147 -16 16 -5 63 -74 113 -169 44 -82 89 -164 146 -265 76 -135 80 -143 80 -162 0 -10 12 -24 27 -31 25 -14 21 -14 -48 -10 -102 6 -282 31 -353 49 -115 30 -130 43 -187 159 -38 77 -57 105 -71 105 -10 0 -18 -2 -18 -5 0 -16 111 -223 126 -237 35 -30 143 -64 284 -87 112 -18 383 -40 433 -34 47 6 47 6 47 44 0 21 -5 41 -11 45 -6 3 -17 21 -25 38 -8 17 -27 54 -44 81 -16 28 -53 95 -81 150 -29 55 -61 111 -73 125 -11 15 -41 69 -66 123 -49 106 -67 120 -146 116 -33 -2 -126 5 -364 25 -25 2 -56 2 -70 -1z"></path><path id="pwfwrDEat" d="M4540 2303 c-80 -8 -172 -15 -205 -17 -91 -4 -95 -5 -95 -21 0 -9 9 -15 25 -15 19 0 25 -5 25 -22 0 -12 7 -29 16 -39 9 -10 26 -37 40 -61 48 -88 224 -426 224 -432 0 -3 -7 -6 -15 -6 -8 0 -15 -4 -15 -10 0 -5 -13 -10 -30 -10 -23 0 -30 -4 -30 -20 0 -11 7 -20 15 -20 29 0 122 41 142 63 12 12 69 119 129 237 124 248 132 284 80 339 -27 28 -99 53 -144 50 -9 -1 -82 -8 -162 -16z m245 -37 c37 -16 55 -42 55 -80 0 -34 -159 -348 -174 -343 -6 2 -24 27 -41 55 -16 28 -45 78 -64 109 -19 32 -52 92 -73 133 -22 41 -44 80 -50 87 -18 22 -2 27 110 39 154 16 198 16 237 0z"></path><path id="pkHSHnCWq" d="M2950 2260 c0 -18 7 -20 60 -20 44 0 60 4 60 14 0 16 -30 26 -82 26 -31 0 -38 -4 -38 -20z"></path><path id="px6GOuu52" d="M4068 2273 c-10 -2 -18 -11 -18 -19 0 -10 13 -14 50 -14 43 0 50 3 50 20 0 16 -6 20 -32 19 -18 -1 -41 -3 -50 -6z"></path><path id="pbAJX4xUu" d="M3230 2251 c0 -17 6 -21 31 -21 l32 0 -25 -22 c-13 -13 -61 -41 -106 -63 -45 -21 -82 -43 -82 -47 0 -4 -9 -8 -20 -8 -16 0 -20 -7 -20 -35 0 -24 5 -35 15 -35 8 0 15 -4 15 -10 0 -5 20 -10 45 -10 32 0 45 4 45 14 0 15 -29 26 -69 26 -36 0 -18 14 77 60 87 42 242 138 242 150 0 11 -27 16 -107 19 -68 2 -73 1 -73 -18z"></path><path id="p1F4LzgFJI" d="M3728 2263 c-21 -2 -38 -6 -38 -8 0 -3 22 -42 49 -87 127 -213 241 -308 461 -386 144 -51 146 -52 130 -62 -21 -13 -338 -12 -402 1 -29 6 -86 27 -127 46 -91 43 -210 156 -265 253 -21 36 -39 66 -40 68 -2 1 -23 -6 -47 -17 -24 -10 -70 -24 -101 -31 -38 -7 -58 -16 -58 -26 0 -18 61 -19 122 0 40 12 47 12 57 -3 48 -71 61 -95 61 -115 0 -13 7 -26 15 -30 8 -3 15 -12 15 -20 0 -7 11 -21 25 -30 16 -11 25 -26 25 -42 0 -17 7 -28 20 -31 15 -4 20 -14 20 -39 0 -22 6 -37 15 -40 8 -4 15 -15 15 -25 0 -10 4 -19 9 -19 5 0 11 -12 13 -27 2 -23 10 -29 43 -36 22 -5 63 -5 90 -1 28 3 86 8 130 10 44 1 112 5 150 8 39 3 79 6 90 7 34 1 157 19 213 30 33 7 52 15 52 25 0 18 -25 18 -123 -1 -101 -19 -107 -19 -107 5 0 15 -7 20 -27 21 -16 1 10 5 56 10 111 11 113 11 109 55 -3 41 2 37 -187 110 -40 15 -75 33 -78 40 -2 7 -13 14 -23 17 -11 3 -27 21 -37 41 -10 22 -24 36 -35 36 -10 0 -21 8 -24 18 -3 9 -17 40 -30 67 -13 28 -24 55 -24 61 0 7 -7 17 -15 24 -9 7 -15 29 -15 52 0 31 -4 41 -20 45 -11 3 -20 12 -20 19 0 14 -50 16 -142 7z"></path><path id="pCf9kSkyg" d="M3855 1940 c27 -27 51 -50 54 -50 3 0 -17 23 -44 50 -27 28 -51 50 -54 50 -3 0 17 -22 44 -50z"></path><path id="p12UeEp4cx" d="M3665 1910 c21 -22 41 -40 44 -40 3 0 -13 18 -34 40 -21 22 -41 40 -44 40 -3 0 13 -18 34 -40z"></path><path id="po2bC82qr" d="M3250 1576 c0 -16 30 -26 78 -26 25 0 32 4 32 20 0 18 -7 20 -55 20 -40 0 -55 -4 -55 -14z"></path></g></g><g id="l4EUXfAZD4vAtV2W4RyYkiR" fill="rgb(4,118,218)" style="transform: none;"><g style="transform: none;"><path id="p80CBidfh" d="M2290 2299 c-38 -15 -60 -40 -60 -66 0 -30 6 -29 36 6 13 16 38 32 54 36 17 4 30 13 30 21 0 16 -24 17 -60 3z"></path><path id="p1E7QiVc48" d="M2460 2296 c0 -14 29 -26 63 -26 25 0 21 27 -5 34 -37 10 -58 7 -58 -8z"></path><path id="p2KGcboJW" d="M4578 2303 c-20 -5 -25 -33 -5 -33 29 0 57 13 57 26 0 14 -18 16 -52 7z"></path><path id="pXUJXKmWM" d="M4740 2297 c0 -8 16 -18 35 -24 31 -10 35 -9 35 7 0 10 -10 20 -22 24 -35 9 -48 7 -48 -7z"></path><path id="pt48ChpgF" d="M2570 2286 c0 -13 28 -26 58 -26 6 0 12 9 12 20 0 16 -7 20 -35 20 -23 0 -35 -5 -35 -14z"></path><path id="pqxQWn7JM" d="M4453 2285 c-3 -9 -3 -18 0 -21 11 -11 67 8 67 22 0 20 -59 19 -67 -1z"></path><path id="p19OFuJ1M3" d="M2680 2278 c0 -19 29 -28 95 -28 28 0 55 -4 60 -8 6 -4 30 -49 55 -101 25 -52 55 -106 66 -120 12 -14 44 -71 73 -126 28 -55 65 -122 81 -150 17 -27 36 -64 44 -81 8 -17 19 -35 25 -38 24 -15 8 -26 -39 -26 -36 0 -50 -4 -50 -14 0 -20 26 -24 113 -18 l77 5 0 33 c0 25 -7 38 -25 50 -15 9 -25 26 -25 39 0 12 -20 47 -44 76 -24 30 -49 72 -56 94 -7 22 -19 47 -27 56 -8 9 -22 32 -31 50 l-17 34 37 -4 c48 -4 54 24 8 34 -16 4 -30 10 -30 14 0 4 37 25 82 46 88 43 178 100 191 122 4 7 18 13 31 13 13 0 29 7 36 15 11 13 4 15 -51 15 -35 0 -88 3 -117 7 l-53 6 6 -54 6 -54 -66 -29 c-36 -16 -75 -37 -87 -48 -21 -18 -22 -18 -40 9 -29 43 -78 141 -78 156 0 16 -35 23 -163 33 -74 6 -87 5 -87 -8z"></path><path id="pXQgOgi4c" d="M4288 2283 c-25 -6 -24 -76 0 -111 11 -15 39 -65 64 -112 75 -140 130 -243 146 -275 8 -16 23 -42 34 -57 23 -34 23 -48 -2 -48 -11 0 -20 -4 -20 -10 0 -5 -16 -10 -35 -10 -28 0 -35 -4 -35 -20 0 -25 11 -25 90 1 88 29 110 45 110 82 0 29 -1 30 -14 11 -8 -10 -16 -17 -19 -14 -2 3 -50 93 -106 200 -127 243 -145 277 -165 299 -23 25 -20 31 17 31 47 0 77 10 77 26 0 10 -15 13 -62 12 -35 -1 -71 -3 -80 -5z"></path><path id="pjEBNSRGL" d="M2940 2260 c0 -16 7 -20 35 -20 40 0 49 24 13 34 -38 10 -48 7 -48 -14z"></path><path id="p7vno78gY" d="M4108 2273 c-33 -8 -20 -33 17 -33 28 0 35 4 35 20 0 20 -14 23 -52 13z"></path><path id="pCKohrTck" d="M3803 2263 c-62 -6 -55 -28 15 -44 l57 -14 -3 -35 c-2 -26 2 -41 17 -54 12 -11 21 -24 21 -31 0 -7 10 -32 23 -56 13 -24 21 -52 19 -62 -2 -12 5 -19 26 -23 21 -4 34 -16 46 -40 9 -19 24 -38 33 -41 10 -4 21 -12 25 -18 4 -6 40 -24 80 -39 143 -55 183 -73 182 -82 -1 -12 -65 -23 -140 -23 l-61 -1 11 -35 c8 -27 16 -35 36 -36 26 -1 19 -4 -42 -14 -45 -7 -53 -35 -10 -35 43 1 219 19 247 26 27 7 35 34 10 34 -14 0 -15 10 -9 60 l7 60 -44 21 c-127 60 -116 46 -132 169 -1 10 -16 16 -40 18 l-37 3 0 66 c0 50 -5 71 -20 90 -11 14 -20 32 -20 39 0 8 -6 14 -14 14 -9 0 -16 12 -18 27 -2 18 -10 29 -23 32 -11 2 -22 7 -25 11 -6 9 -159 18 -217 13z"></path><path id="pLy9JkJNv" d="M4840 2200 c0 -27 4 -40 14 -40 16 0 26 32 19 60 -10 37 -33 23 -33 -20z"></path><path id="pdMRZn9jA" d="M2220 2178 c0 -24 21 -87 30 -93 6 -4 14 -4 19 -1 13 8 -20 106 -36 106 -7 0 -13 -6 -13 -12z"></path><path id="p2knXY4EB" d="M2280 2040 c0 -29 58 -140 76 -147 29 -11 25 6 -17 86 -43 81 -59 98 -59 61z"></path><path id="pSDz33o2P" d="M3373 2042 c-52 -15 -53 -16 -53 -53 0 -40 2 -42 64 -51 12 -2 24 -18 33 -42 7 -22 20 -48 29 -57 10 -11 18 -46 22 -91 l7 -73 40 -6 c22 -3 30 -7 18 -8 -20 -1 -23 -6 -23 -46 0 -29 4 -45 13 -45 6 0 67 -5 134 -9 67 -5 131 -7 143 -4 30 8 25 33 -7 35 -16 0 -35 1 -43 2 -9 1 -16 13 -18 29 -2 15 -8 27 -13 27 -5 0 -9 9 -9 19 0 10 -7 22 -16 25 -12 4 -15 15 -12 37 4 25 1 32 -19 40 -14 5 -23 17 -23 31 -1 26 -24 61 -33 51 -4 -3 -11 6 -16 21 -6 14 -16 26 -22 26 -6 0 -9 9 -6 20 3 11 -3 30 -15 45 -11 14 -17 25 -13 25 4 0 0 6 -7 14 -7 7 -20 23 -28 35 -17 25 -51 26 -127 3z"></path><path id="pEeWjoZaA" d="M3200 2010 c0 -16 7 -20 35 -20 28 0 35 4 35 20 0 16 -7 20 -35 20 -28 0 -35 -4 -35 -20z"></path><path id="pi6bJiFOA" d="M4682 1841 c-27 -47 -27 -51 -4 -51 20 0 42 38 42 70 0 31 -14 24 -38 -19z"></path><path id="p1Eu6eD72V" d="M2382 1823 c32 -67 48 -81 48 -44 0 33 -11 51 -32 51 -10 0 -18 -3 -16 -7z"></path><path id="p12MBP6aZj" d="M2550 1656 c0 -13 80 -36 188 -52 34 -5 42 -4 42 9 0 11 -13 18 -37 23 -21 3 -66 12 -101 20 -79 18 -92 18 -92 0z"></path><path id="pHn7WBm5s" d="M2950 1596 c0 -16 30 -26 78 -26 37 0 45 24 10 34 -42 11 -88 7 -88 -8z"></path><path id="pXTA7HmY9" d="M4008 1603 c-30 -3 -38 -8 -38 -25 0 -18 4 -20 31 -14 17 3 47 6 65 6 27 0 34 4 34 20 0 21 -6 22 -92 13z"></path><path id="pchocA3JQ" d="M3848 1593 c-10 -2 -18 -11 -18 -19 0 -11 15 -14 65 -14 58 0 65 2 65 20 0 17 -6 20 -47 19 -27 -1 -56 -3 -65 -6z"></path><path id="p3cjUVXmL" d="M3300 1576 c0 -14 29 -26 68 -26 15 0 22 6 22 20 0 17 -7 20 -45 20 -32 0 -45 -4 -45 -14z"></path></g></g><g id="l6LOu9acGMvvMcEZxGdRONy" fill="rgb(4,128,235)" style="transform: none;"><g style="transform: none;"><path id="pNC3pgQHh" d="M2283 2295 c-48 -21 -66 -56 -61 -117 4 -41 29 -99 116 -268 126 -246 124 -245 274 -280 220 -52 506 -74 953 -74 465 0 775 27 955 83 119 37 118 37 240 282 93 186 110 228 110 268 0 114 -67 135 -345 111 -131 -11 -425 -27 -660 -36 -93 -3 -172 -8 -174 -9 -1 -2 0 -8 4 -14 4 -7 59 -11 151 -11 87 0 143 -4 139 -9 -3 -5 7 -11 22 -13 31 -4 44 -28 15 -28 -23 0 -46 -25 -37 -40 3 -5 15 -10 25 -10 20 0 27 -16 32 -74 2 -16 9 -31 15 -34 19 -6 28 27 15 49 -7 10 -12 33 -11 51 0 32 1 32 10 8 6 -13 17 -32 26 -42 12 -13 14 -28 9 -58 -7 -44 10 -120 27 -120 5 0 15 7 22 17 19 26 38 6 32 -33 -3 -19 -1 -36 4 -39 5 -4 9 -15 9 -25 0 -18 24 -34 118 -79 47 -23 48 -36 2 -46 -28 -6 -43 -25 -20 -25 6 0 10 -7 10 -15 0 -8 6 -15 13 -15 7 0 6 -4 -4 -10 -32 -19 -308 -43 -508 -44 l-204 -1 -12 48 c-15 61 -37 86 -59 68 -20 -17 -36 -6 -36 24 0 18 4 22 20 18 27 -7 27 23 0 37 -11 6 -23 23 -26 38 -4 15 -15 37 -25 50 -10 13 -21 36 -24 53 -6 28 -36 55 -48 43 -14 -14 -47 9 -47 31 0 24 0 24 -119 24 -127 0 -175 7 -165 23 4 5 43 27 87 49 98 47 102 51 86 78 -20 32 11 50 87 51 37 0 68 6 80 15 17 13 15 14 -36 15 -111 0 -530 21 -727 35 -247 18 -319 18 -360 0z m340 -30 c248 -22 278 -26 273 -34 -3 -3 14 -40 36 -81 23 -41 61 -113 84 -159 24 -46 50 -91 58 -100 7 -9 19 -34 26 -56 7 -22 32 -64 56 -94 24 -29 44 -63 44 -74 0 -12 12 -32 28 -45 l27 -23 -170 5 c-239 8 -458 42 -565 87 -45 19 -46 21 -157 239 -86 167 -113 228 -113 258 0 95 49 105 373 77z m2176 0 c67 -34 58 -80 -54 -302 -52 -104 -104 -203 -115 -220 -22 -36 -44 -43 -54 -16 -3 10 -24 50 -46 88 -22 39 -62 113 -89 165 -47 92 -102 191 -131 237 -8 12 -12 24 -10 27 8 8 291 34 383 35 60 1 97 -4 116 -14z"></path></g></g><g id="lyUMWMoydxGLz5tKrFSMh0" fill="rgb(150,150,149)" style="transform: none;"><g style="transform: none;"><path id="p1G6KWrQeB" d="M2555 2379 c-22 -4 -62 -9 -90 -10 l-50 -1 50 -9 c28 -5 127 -10 220 -11 183 -3 294 7 277 24 -12 12 -348 18 -407 7z"></path><path id="p16qVEJhvj" d="M4165 2382 c-54 -6 -48 -20 11 -29 71 -10 288 -9 436 1 87 6 106 10 101 22 -5 13 -45 15 -262 12 -141 -2 -269 -4 -286 -6z"></path><path id="pmI8LZ6Hb" d="M2136 2341 c-16 -16 -31 -44 -35 -63 l-7 -33 -91 -6 c-76 -5 -99 -10 -131 -31 -92 -61 -71 -158 34 -158 17 0 24 5 24 20 0 13 -7 20 -18 20 -23 0 -43 51 -28 72 16 21 72 38 127 38 27 0 49 -2 49 -5 0 -2 -6 -16 -12 -32 -18 -38 -55 -73 -78 -73 -13 0 -20 -7 -20 -20 0 -46 82 -13 124 50 18 27 36 43 56 47 34 6 34 6 21 51 -7 21 -6 43 0 59 10 28 47 62 67 63 6 0 12 7 12 15 0 28 -63 19 -94 -14z"></path><path id="pCkQGwB6l" d="M4900 2353 c0 -9 10 -27 22 -40 23 -25 30 -79 15 -120 -7 -20 -5 -23 17 -23 28 0 45 -14 75 -63 21 -35 57 -57 91 -57 35 0 22 34 -20 53 -30 14 -40 25 -40 42 0 43 10 55 47 55 40 0 67 -12 105 -48 26 -24 27 -27 11 -44 -9 -10 -22 -18 -30 -18 -7 0 -13 -9 -13 -20 0 -29 45 -26 77 6 20 20 24 32 19 57 -13 69 -96 110 -210 106 l-61 -3 -13 40 c-12 37 -61 94 -82 94 -6 0 -10 -8 -10 -17z"></path><path id="pjvOWvpTE" d="M3576 2352 c-6 -11 95 -220 140 -289 53 -78 164 -194 229 -238 36 -24 69 -37 102 -40 l48 -5 -35 16 c-153 70 -309 247 -416 472 -41 85 -56 104 -68 84z"></path><path id="p7S1axN8Y" d="M3495 2279 c-62 -63 -124 -109 -223 -165 l-77 -44 61 0 c68 0 156 21 214 50 l39 20 47 -80 c62 -103 120 -169 195 -219 61 -41 176 -83 259 -95 l45 -7 -58 32 c-149 83 -286 240 -384 441 -32 65 -60 118 -63 118 -3 0 -28 -23 -55 -51z m9 -108 c11 -17 -78 -52 -112 -45 -39 8 -40 14 -4 36 29 19 107 24 116 9z m120 -26 c24 -36 20 -41 -26 -37 -48 5 -64 14 -71 42 -5 18 0 20 38 20 34 0 46 -5 59 -25z m66 -145 c0 -5 -9 -10 -20 -10 -11 0 -20 5 -20 10 0 6 9 10 20 10 11 0 20 -4 20 -10z m187 -169 c34 -25 61 -47 59 -49 -12 -11 -216 86 -216 103 0 1 21 0 48 -3 35 -4 62 -16 109 -51z"></path><path id="pCOcSHrRb" d="M2478 1922 c-4 -14 2 -23 19 -31 21 -10 24 -9 20 2 -3 8 0 20 6 26 8 8 8 11 0 11 -6 0 -18 3 -26 6 -9 3 -16 -2 -19 -14z"></path><path id="p11Tn4CbwL" d="M2677 1894 c-2 -13 -1 -24 4 -24 4 0 14 -3 22 -6 25 -9 27 31 1 43 -19 9 -23 7 -27 -13z"></path><path id="pBtYMGmg5" d="M2552 1880 c19 -58 19 -60 -9 -86 l-28 -27 37 7 c31 6 39 3 56 -19 27 -34 33 -32 21 8 -8 28 -6 35 16 54 33 29 32 33 -6 23 -27 -8 -34 -6 -61 23 -17 18 -28 25 -26 17z"></path><path id="pkXRakVn5" d="M2517 1587 c40 -45 214 -100 359 -113 71 -6 71 -6 76 20 3 14 1 26 -4 26 -37 0 -290 45 -361 64 -84 22 -87 22 -70 3z"></path><path id="pIDcK03On" d="M3798 1503 c-90 -3 -98 -5 -98 -23 0 -15 -7 -20 -25 -20 -19 0 -25 -5 -25 -21 0 -21 2 -22 113 -14 194 13 210 16 218 46 6 24 3 28 -23 33 -17 3 -38 5 -47 4 -9 -1 -60 -4 -113 -5z"></path><path id="p18OMtPrWF" d="M3180 1480 c6 -11 9 -24 6 -29 -8 -12 32 -19 163 -27 l114 -7 -6 33 c-4 18 -7 36 -7 41 0 5 -63 9 -140 9 -138 0 -141 0 -130 -20z"></path><path id="puTOP2GtK" d="M3470 1436 c0 -16 30 -26 80 -26 50 0 80 10 80 26 0 11 -19 14 -80 14 -61 0 -80 -3 -80 -14z"></path></g></g><g id="l2jBXCg8zciF3LgXkYIc2eF" fill="rgb(225,225,225)" style="transform: none;"><g style="transform: none;"><path id="poQzIc1VV" d="M2820 2379 c-52 -3 -90 -6 -85 -8 6 -1 1 -7 -10 -12 -13 -6 20 -8 98 -5 65 2 123 8 128 13 15 15 -22 19 -131 12z"></path><path id="pczs0Gxh9" d="M4138 2368 c9 -9 60 -14 157 -16 130 -4 145 -3 139 12 -5 14 -27 16 -157 16 -120 0 -148 -3 -139 -12z"></path><path id="prZluWk6c" d="M3580 2345 c0 -18 96 -215 112 -230 6 -6 6 -1 -1 12 -13 25 -14 36 -3 29 4 -2 -15 43 -43 100 -47 99 -65 123 -65 89z"></path><path id="pxDHLG5iY" d="M3491 2269 c-70 -65 -139 -116 -221 -162 -65 -37 -65 -37 -29 -37 60 0 151 20 212 47 31 14 59 24 61 22 2 -2 22 -37 45 -77 62 -107 158 -204 243 -247 39 -19 78 -35 87 -35 9 0 -10 11 -42 24 -32 14 -76 37 -98 52 -43 30 -103 93 -96 101 3 2 26 1 52 -2 38 -6 60 -20 125 -76 43 -37 89 -73 102 -79 21 -9 20 -9 -2 7 -56 39 -173 160 -220 229 -27 39 -73 120 -101 178 -29 58 -55 106 -58 106 -3 -1 -30 -24 -60 -51z m81 -26 c19 -22 112 -193 107 -197 -2 -1 -25 -1 -51 2 -44 4 -49 7 -79 53 -17 27 -35 49 -39 49 -4 0 -32 -11 -61 -24 -47 -21 -183 -48 -169 -33 3 3 55 41 115 86 114 83 149 96 177 64z"></path><path id="pVSqlrwKq" d="M3148 2253 c12 -2 30 -2 40 0 9 3 -1 5 -23 4 -22 0 -30 -2 -17 -4z"></path><path id="pehXQB8G" d="M3893 2253 c20 -2 54 -2 75 0 20 2 3 4 -38 4 -41 0 -58 -2 -37 -4z"></path><path id="ppWEbe5Bm" d="M1900 2219 c-33 -13 -60 -39 -71 -67 -7 -17 -4 -27 11 -42 11 -11 20 -26 20 -34 0 -18 67 -30 120 -21 29 5 47 16 67 41 16 19 38 46 50 60 22 23 22 26 7 49 -15 23 -22 25 -98 24 -44 0 -92 -5 -106 -10z"></path><path id="pcVtyqRQr" d="M5027 2186 c-14 -41 -14 -46 4 -76 11 -17 36 -38 56 -47 48 -20 135 -13 163 12 30 27 26 75 -7 107 -43 40 -67 48 -136 48 l-65 0 -15 -44z"></path><path id="pT0elaawe" d="M3716 2106 c6 -15 4 -17 -7 -11 -18 12 12 -35 73 -114 50 -63 156 -154 170 -145 5 3 -24 38 -65 77 -41 40 -95 101 -121 137 -57 77 -59 80 -50 56z"></path><path id="pz1Z1kLDd" d="M2484 1919 c-3 -6 0 -15 7 -20 14 -8 32 9 23 23 -7 11 -22 10 -30 -3z"></path><path id="pr57LIWXn" d="M2686 1895 c-6 -17 9 -29 24 -20 14 9 12 22 -4 28 -8 3 -17 -1 -20 -8z"></path><path id="pVgSh8Ek5" d="M2565 1847 c6 -22 2 -34 -14 -51 l-22 -23 26 5 c18 3 33 -2 51 -19 l26 -24 -7 28 c-6 22 -2 34 16 53 l24 26 -28 -7 c-22 -6 -34 -2 -53 16 l-26 24 7 -28z"></path><path id="pPZl5clk6" d="M3966 1831 c-9 -14 19 -31 61 -38 45 -7 43 -3 -14 26 -23 11 -44 17 -47 12z"></path><path id="p59mhIg0a" d="M3960 1771 c0 -8 34 -21 55 -21 11 1 -35 29 -47 30 -5 0 -8 -4 -8 -9z"></path><path id="pudtYRiE2" d="M2510 1597 c0 -9 64 -45 93 -52 20 -5 27 -3 27 7 0 8 -18 19 -42 25 -24 7 -51 15 -60 18 -10 4 -18 5 -18 2z"></path><path id="pSBShJ6vS" d="M3414 1492 c-6 -4 -13 -19 -16 -34 -4 -23 -1 -27 25 -32 38 -8 212 -8 268 0 42 6 45 8 44 38 l-1 31 -154 2 c-85 2 -160 0 -166 -5z"></path></g></g></svg>